<?xml version="1.0" encoding="utf-8"?>
<!-- Generator: Adobe Illustrator 22.1.0, SVG Export Plug-In . SVG Version: 6.00 Build 0)  -->
<svg version="1.1" id="Layer_1" xmlns="http://www.w3.org/2000/svg" xmlns:xlink="http://www.w3.org/1999/xlink" x="0px" y="0px"
	 viewBox="0 0 286 122" style="enable-background:new 0 0 286 122;" xml:space="preserve">
<style type="text/css">
	.st0{fill:#112D5E;}
	.st1{fill:#C30D1D;}
	.st2{fill:#FFFFFF;}
	.st3{fill:#EE9800;}
</style>
<g>
	<g>
		<path class="st0" d="M242.9,33.1l-0.1,6.4l-4.7-6.4h-20l-12-28.3L191,33.1h-28.6l-3.8,5.9l-0.1-5.9h-25.3l0,20.8l-9.7,0V33.1
			h-17.2l0,0H77.8H66.9H50.8l-8,14.3l-8.1-14.3H7.8l24.7,43.6h20.8l6.5-11.6c0.7,1.5,1.7,2.9,2.8,4.2c1.7,2,3.7,3.6,5.9,4.8
			c2.2,1.1,4.8,1.9,7.7,2.2c2.4,0.3,4.6,0.4,6.6,0.4c5.2,0,15.6-0.1,15.6-0.1l68.9,0L150.2,115l9.1,0l48-58.7l10.4,20.4h51.6V33.1
			H242.9z"/>
		<path class="st1" d="M236.7,29.2l-0.1,6.4l-4.7-6.4h-20L200,0.9l-15.2,28.3h-28.6l-3.8,5.9l-0.1-5.9h-25.3l0,20.8l-9.7,0V29.2
			h-17.2l0,0H71.5H60.7H44.6l-8,14.3l-8.1-14.3H1.6l24.7,43.6h20.8l6.5-11.6c0.7,1.5,1.7,2.9,2.8,4.2c1.7,2,3.7,3.6,5.9,4.8
			c2.2,1.1,4.8,1.9,7.7,2.2c2.4,0.3,4.6,0.4,6.6,0.4c5.2,0,15.6-0.1,15.6-0.1l68.9,0L144,111.1l9.1,0l48-58.7l10.4,20.4h51.6V29.2
			H236.7z"/>
		<g>
			<path class="st2" d="M81.2,34.1v16.7c0,1.6-0.2,2.8-1,3.5c-0.8,0.8-1.9,1.2-3.4,1.2c-1.5,0-2.6-0.4-3.4-1.2
				c-0.8-0.8-1.1-2-1.1-3.5V34.1h-7.2l-7.4,13.3v2.9c0,1.9,0.4,4.2,1.1,6.6c0.5,1.7,1.4,3.3,2.7,4.8c1.3,1.5,2.8,2.7,4.4,3.5
				c1.6,0.8,3.5,1.4,5.8,1.7c2.2,0.3,4.2,0.4,6,0.4c3.2,0,6.1-0.4,8.4-1.3c1.8-0.7,3.5-1.8,5.1-3.4c1.6-1.6,2.8-3.5,3.5-5.6
				c0.7-2.1,1.1-4.3,1.1-6.6l0-16.2H81.2z"/>
			<path class="st2" d="M49,34.1L37.6,54.4L26.2,34.1H11.8l18.6,33.1l0,0h14.4l0,0l18.6-33.1H49z"/>
			<path class="st2" d="M113.2,55.3V34.1H98.7v33.1h31.9l0-11.9L113.2,55.3z"/>
			<path class="st2" d="M169.9,67.2l3.5-6.5l-8.4-9.3l12.1-17.3h-16.7l-11.1,17.3l12.2,15.8H169.9z"/>
			<path class="st2" d="M133.5,49.6l0,17.6h14.4V34.1h-14.4L133.5,49.6z"/>
			<path class="st2" d="M242.9,34.1v18.3l-12.7-18.2l-0.1-0.1h-14.4l0,0v15l-15.3-35.8l-47.7,88.6l48.8-59.1l14.2,24.4l7.3,0.1
				l7.1-0.1l0,0V49.7l12.8,17.5h14.7V34.1H242.9z"/>
		</g>
		<path class="st0" d="M210.7,114.3c-0.5,0-1-0.1-1.7-0.3c-0.5-0.1-1.2-0.3-1.9-0.6c-0.7-0.3-1.4-0.6-2.2-0.9
			c-0.8-0.3-1.5-0.7-2.2-1.1c-0.8-0.5-1.5-1-2.1-1.5c-0.9-0.9-1.5-1.9-1.7-3c0-0.3-0.2-1-0.4-2.3c-0.2-1.3-0.6-2.9-1-4.8
			c-0.4-1.9-0.9-3.9-1.4-6.2c-0.5-2.2-1.1-4.3-1.8-6.3c-0.6-1.8-1.2-3.4-1.8-4.8c-0.1,0.4-0.2,0.8-0.3,1.2c-0.3,1.3-0.6,2.6-0.8,4
			c-0.2,1.4-0.3,2.7-0.4,4.1c0,1.2,0,2.3,0.2,3.3c0.2,1.2,0.4,1.6,0.4,1.6c0.3,0.5,0.5,0.7,0.5,0.7c0.3,0.2,0.5,0.4,0.7,0.5
			c0.8,0.6,1.3,1.4,1.5,2.3c0.1,0.7,0.1,1.8-0.8,3c-0.5,0.7-1.5,1.6-3.4,1.8c-0.3,0-0.5,0-0.8,0c-0.6,0-1.3-0.1-2-0.2
			c-0.9-0.2-1.8-0.5-2.8-0.9c-1-0.4-1.9-0.9-2.8-1.5c-0.9-0.6-1.7-1.4-2.4-2.2c-0.8-1-1.3-2.2-1.5-3.5c-0.4-2.4-0.5-4.8-0.2-7.1
			c0.2-2.3,0.7-4.6,1.4-6.6c0.7-2.1,1.6-4,2.8-5.7c1.2-1.8,2.7-3.3,4.3-4.3c1.7-1.1,3.7-1.7,5.7-1.7c0,0,0,0,0,0
			c2,0,3.9,0.6,5.7,1.8c0.7,0.2,1.3,0.5,2,0.8c0.9,0.4,1.8,0.9,2.6,1.5c0.9,0.6,1.7,1.4,2.4,2.3c0.8,1,1.3,2.2,1.5,3.4
			c0.1,0.3,0.1,0.5,0.2,0.8c0.1-0.7,0.1-1.3,0.2-2c0.3-2.4,0.6-4.7,1-7c0.4-2.3,0.9-4.5,1.5-6.3c0.7-2.1,1.4-3.8,2.4-5.1
			c1.6-2.3,3.5-3.1,4.8-3.3c0.6-0.1,1.2-0.1,1.8-0.1c1,0,1.9,0.1,2.7,0.4c1.3,0.4,2.3,1.1,3.2,1.9c0.8,0.8,1.5,1.7,1.9,2.7
			c0.4,0.9,0.7,1.8,0.7,2.6c0.1,1.2-0.1,2.2-0.6,3.1c-0.7,1.2-1.9,1.9-3.2,1.9c-0.4,0-0.8-0.1-1.3-0.2c0,0,0,0,0,0.1
			c-0.4,1-0.8,2.3-1.1,3.8c-0.3,1.7-0.6,3.7-0.9,5.7c-0.3,2.1-0.5,4.3-0.7,6.7c-0.2,2.4-0.4,4.7-0.6,7c-0.2,2.3-0.4,4.6-0.6,6.7
			c-0.2,2.2-0.5,4.1-0.9,5.8c-0.4,1.9-0.8,3.4-1.3,4.6c-1.1,2.7-2.8,3.4-4,3.6l-0.3,0L210.7,114.3z"/>
		<path class="st0" d="M235.6,120.8c-0.9,0-1.7-0.1-2.5-0.3c-1.3-0.4-2.3-0.9-3.2-1.7c-0.9-0.7-1.6-1.6-2.1-2.6
			c-0.4-0.8-0.7-1.6-0.9-2.4l0-0.2c0-0.2-0.1-0.5-0.1-0.7c0-0.2,0-0.4,0-0.6c-0.1-1.8,0.2-3.6,0.9-5.2c0.6-1.5,1.5-2.9,2.7-4.1
			c0.7-0.8,1.5-1.5,2.4-2.2c-0.2-0.2-0.4-0.4-0.7-0.6c-0.8,0.9-1.6,1.6-2.5,2.3c-1.6,1.2-3.3,1.9-5.1,2.1c-0.3,0-0.6,0.1-0.9,0.1
			c-0.8,0-1.7-0.1-2.5-0.4c-1.2-0.3-2.3-1-3.3-1.8c-1-0.8-1.9-1.9-2.7-3.2c-0.8-1.3-1.3-2.9-1.6-4.7c-0.4-2.4-0.3-4.8,0.4-7.1
			c0.6-2.1,1.5-4.1,2.6-5.9c1.1-1.8,2.5-3.2,4-4.4c1.6-1.3,3.3-2.1,5-2.3c0.6-0.1,1.1-0.1,1.6-0.1c1.9,0,3.6,0.6,4.9,1.8
			c0.3,0.3,0.7,0.7,1,1.2c0.9-1,1.8-1.9,2.8-2.6c1-0.8,2.1-1.5,3-1.9c1.1-0.5,2-0.8,2.9-1c0.6-0.1,1.1-0.1,1.6-0.1
			c0.6,0,1.2,0.1,1.7,0.2c1.1,0.2,2,0.7,2.7,1.3c0.7,0.6,1.3,1.3,1.7,2.1c0.3,0.7,0.5,1.4,0.7,2c0.1,0.8,0.2,1.7,0.1,2.4
			c1.5,1.1,2.1,3,1.5,4.7c-0.1,0.4-0.2,0.9-0.3,1.5l-0.4,2.6l-0.9,5.4c0.1,0,0.3,0,0.4,0c1,0,2,0.2,2.9,0.5c1.3,0.4,2.5,1.1,3.6,1.9
			c1,0.8,1.8,1.6,2.4,2.5c0.7,0.9,1.1,1.8,1.4,2.7c0.7,2.3-0.2,3.7-0.8,4.3c-0.7,0.7-1.6,1.1-2.6,1.1l0,0c-1.2,0-2.2-0.6-2.8-1
			c-0.1-0.1-0.2-0.2-0.6-0.2c-0.4-0.1-0.8-0.1-1.3-0.1c-0.3,0-0.6,0-0.9,0c-0.9,0.1-1.8,0.2-2.9,0.4c-0.5,0.1-1,0.2-1.5,0.4
			c-0.3,1.3-0.6,2.5-0.9,3.6c-0.5,1.8-1.1,3.3-1.7,4.6c-0.8,1.5-1.7,2.8-2.8,3.7c-1.2,1.1-2.7,1.8-4.4,2
			C236.8,120.7,236.2,120.8,235.6,120.8z"/>
		<path class="st0" d="M255.1,98.4c-0.7,0-1.5-0.1-2.2-0.4c-1-0.4-2-1-2.9-1.9c-0.8-0.8-1.5-1.8-2-2.9c-0.6-1.2-1-2.5-1.2-4.1
			c-0.5-3-0.3-5.8,0.6-8.3c0.8-2.3,2-4.3,3.4-5.9c1.4-1.6,2.9-2.9,4.4-3.9c1.7-1,3-1.6,4.2-1.8c0.5-0.1,1.1-0.1,1.5-0.1
			c0.6,0,1.2,0.1,1.7,0.2c0.9,0.2,1.8,0.6,2.5,1.2c0.6,0.5,1.1,1,1.5,1.7c0.3-0.6,0.7-1.1,1.2-1.6c1.1-1.2,2.4-2.2,3.9-2.9
			c1.5-0.7,3.2-1.1,5-1.1c0,0,0,0,0,0c3.3,0,5.2,1.3,6.1,2.4c1.2,1.3,1.9,3,2.2,4.8c0.1,0.9,0.1,1.9,0,3c-0.1,1-0.4,1.9-0.7,2.8
			c-0.4,1-1,1.9-1.7,2.6c-0.2,0.2-0.4,0.4-0.6,0.5c0.6,1,1,2,1.2,3.2c0.4,2.6-0.2,4.9-1.7,6.9c-1.5,1.9-3.7,3.1-6.5,3.6
			c-0.5,0.1-1.1,0.1-1.5,0.1c-1.2,0-2.3-0.3-3.2-0.8c-0.3-0.2-0.6-0.4-0.9-0.6c-0.3,0.3-0.6,0.5-0.9,0.8c-1.4,1.2-3.1,2-4.9,2.3
			c-0.4,0.1-0.8,0.1-1.1,0.1c-1.4,0-2.6-0.5-3.6-1.3c-0.8,0.7-1.7,1.1-2.7,1.3C255.7,98.4,255.4,98.4,255.1,98.4z"/>
		<g>
			<path class="st3" d="M218.2,69c0.5-1.2,1.1-2,1.7-2.4c0.7-0.4,1.4-0.3,2.3,0.4c0.3,0.2,0.5,0.2,0.6,0c0.1-0.3,0.2-0.6,0.2-1.1
				c0-0.5-0.2-1-0.5-1.6c-0.3-0.6-0.7-1.1-1.2-1.6c-0.5-0.5-1.2-0.9-2-1.2c-0.8-0.3-1.8-0.3-2.9-0.1c-1,0.2-1.8,0.8-2.6,1.9
				c-0.8,1.1-1.4,2.5-2,4.3c-0.5,1.7-1,3.7-1.4,5.9c-0.4,2.2-0.7,4.5-1,6.8c-0.3,2.3-0.5,4.7-0.7,7c-0.2,2.3-0.4,4.5-0.6,6.5
				c-0.2,2-0.3,3.8-0.5,5.3c-0.2,1.5-0.3,2.7-0.6,3.4c-0.1-0.3-0.2-1.2-0.6-2.6c-0.3-1.4-0.7-3.1-1.1-5.1c-0.4-2-0.9-4.2-1.5-6.5
				c-0.5-2.3-1-4.6-1.4-6.7c-0.2-0.8-0.5-1.4-0.9-2.1c-0.5-0.6-1-1.2-1.7-1.6c-0.6-0.5-1.3-0.9-2.1-1.2c-0.7-0.3-1.4-0.6-2.1-0.8
				c-1.4-1-2.8-1.6-4.2-1.5c-1.4,0-2.7,0.4-3.9,1.2c-1.2,0.8-2.3,1.9-3.3,3.4c-1,1.5-1.8,3.1-2.4,5c-0.6,1.8-1,3.8-1.2,5.9
				c-0.2,2.1-0.1,4.2,0.2,6.3c0.1,0.7,0.4,1.3,0.9,1.9c0.5,0.6,1,1.1,1.7,1.6c0.7,0.5,1.4,0.9,2.1,1.2c0.8,0.3,1.5,0.5,2.2,0.7
				c0.7,0.1,1.3,0.2,1.8,0.1c0.5-0.1,0.9-0.2,1-0.4c0.2-0.3,0.2-0.5,0.1-0.7c-0.2-0.1-0.5-0.4-0.9-0.7c-0.4-0.3-0.8-0.8-1.2-1.4
				c-0.4-0.6-0.7-1.6-0.9-2.9c-0.2-1.2-0.3-2.5-0.2-3.9c0-1.5,0.2-2.9,0.4-4.4c0.2-1.5,0.5-2.9,0.8-4.3c0.4-1.4,0.7-2.6,1.1-3.6
				c0.4-1,0.8-1.8,1.2-2.3c0.4-0.5,0.8-0.6,1.1-0.4c0.2,0.2,0.4,0.3,0.5,0.3c0.8,0.8,1.6,2.1,2.4,3.8c0.8,1.7,1.5,3.6,2.2,5.7
				c0.7,2.1,1.3,4.3,1.8,6.5c0.6,2.3,1.1,4.3,1.5,6.3c0.4,1.9,0.7,3.5,1,4.9c0.2,1.3,0.4,2.1,0.4,2.4c0.1,0.3,0.3,0.7,0.7,1.1
				c0.4,0.4,0.9,0.7,1.5,1.1c0.6,0.3,1.2,0.7,1.9,1c0.7,0.3,1.3,0.6,2,0.8c0.6,0.2,1.2,0.4,1.6,0.5c0.5,0.1,0.8,0.2,0.9,0.2
				c0.6-0.1,1.1-0.6,1.5-1.6c0.4-1,0.8-2.3,1.1-3.9c0.3-1.6,0.6-3.5,0.8-5.6c0.2-2.1,0.4-4.3,0.6-6.6c0.2-2.3,0.4-4.7,0.6-7
				c0.2-2.4,0.4-4.6,0.7-6.8c0.3-2.2,0.6-4.1,0.9-5.9C217.3,71.7,217.8,70.2,218.2,69z"/>
			<path class="st3" d="M256.5,101c-0.5-0.6-1.1-1.2-1.8-1.8c-0.7-0.6-1.6-1-2.5-1.3c-1-0.3-2-0.4-3.2-0.2c-1,0.2-2.1,0.4-3.2,0.7
				c0.1-0.4,0.2-1,0.3-1.8c0.1-0.8,0.3-1.6,0.4-2.5c0.1-0.9,0.3-1.9,0.5-2.9c0.2-1,0.3-2,0.5-2.9c0.2-0.9,0.3-1.8,0.4-2.6
				c0.1-0.8,0.3-1.4,0.4-1.9c0.2-0.4,0-0.8-0.5-1.1c-0.5-0.3-1.1-0.5-1.8-0.6c0.3-0.5,0.4-1.1,0.6-1.7c0.1-0.6,0.1-1.4,0-2.1
				c-0.1-0.4-0.2-0.7-0.4-1.1c-0.2-0.4-0.5-0.7-0.8-1c-0.4-0.3-0.8-0.5-1.4-0.6c-0.5-0.1-1.2-0.1-2,0c-0.5,0.1-1.2,0.3-1.9,0.7
				c-0.8,0.4-1.6,0.9-2.4,1.6c-0.8,0.7-1.7,1.5-2.5,2.4c-0.8,0.9-1.5,2-2.1,3.2c-0.6,1.2-1,2.6-1.3,4c0,0.2-0.1,0.5-0.1,0.7
				c-0.3,0.7-0.7,1.4-1.1,2.2c-0.6,1-1.3,2-2.2,3c-0.9,0.9-2,1.5-3.3,1.7c-1,0.2-1.7-0.1-2.1-0.7c-0.4-0.6-0.7-1.5-0.7-2.5
				c0.8-0.1,1.8-0.5,2.7-1.2c1-0.7,1.9-1.4,2.7-2.3c0.8-0.9,1.6-1.9,2.1-2.9c0.6-1,0.9-2,0.9-2.8c0.1-1.6-0.4-2.8-1.2-3.6
				c-0.9-0.8-2.1-1.1-3.7-0.8c-1.1,0.2-2.2,0.7-3.4,1.7c-1.2,0.9-2.3,2.1-3.2,3.6c-0.9,1.5-1.7,3.1-2.2,4.9
				c-0.5,1.8-0.6,3.7-0.3,5.7c0.2,1.4,0.6,2.6,1.2,3.6c0.6,1,1.2,1.7,1.9,2.3c0.7,0.6,1.4,1,2.2,1.2c0.7,0.2,1.4,0.3,2,0.2
				c1.3-0.2,2.5-0.7,3.6-1.5c1.1-0.8,2.1-1.8,3-3c0.7-0.9,1.2-1.8,1.7-2.7c0.2,0.5,0.3,1,0.6,1.5c0.4,0.9,0.9,1.6,1.5,2.1
				c0.5,0.5,1.1,0.9,1.7,1.1c0.6,0.2,1.1,0.3,1.7,0.2c0.3-0.1,0.7-0.2,1-0.5c0.3-0.3,0.6-0.6,0.9-1c0.3-0.4,0.5-0.8,0.8-1.2
				c0.2-0.4,0.5-0.8,0.7-1.1c-0.2,0.8-0.4,1.6-0.6,2.5c-0.2,0.9-0.4,1.8-0.6,2.8c-1.3,0.6-2.6,1.3-3.8,2.1c-1.2,0.8-2.2,1.7-3.1,2.6
				c-0.9,1-1.6,2-2.1,3.2c-0.5,1.2-0.7,2.4-0.6,3.8c0,0.2,0,0.3,0,0.5c0,0.2,0,0.3,0.1,0.5c0.1,0.5,0.3,1.1,0.6,1.6
				c0.3,0.6,0.7,1.1,1.2,1.5c0.5,0.5,1.2,0.8,2,1c0.8,0.2,1.8,0.3,2.9,0.1c1.1-0.2,2-0.6,2.7-1.3c0.8-0.7,1.4-1.6,2-2.7
				c0.6-1.1,1.1-2.5,1.5-4.1c0.4-1.6,0.9-3.4,1.4-5.4c1.2-0.4,2.4-0.7,3.6-0.9c1.2-0.3,2.3-0.4,3.3-0.5c1-0.1,2,0,2.8,0.1
				c0.9,0.1,1.6,0.4,2.1,0.8c0.5,0.4,0.9,0.5,1,0.3c0.2-0.2,0.2-0.5,0-1C257.3,102.2,257,101.6,256.5,101z M223.7,84.9
				c0.3-0.8,0.7-1.5,1.1-2.1c0.4-0.6,0.8-1.1,1.3-1.5c0.4-0.4,0.9-0.6,1.4-0.7c0.5-0.1,0.7,0.1,0.7,0.6c0,0.5-0.2,1.1-0.6,1.8
				c-0.4,0.7-1,1.5-1.8,2.3c-0.8,0.8-1.8,1.5-2.9,2C223.1,86.5,223.4,85.7,223.7,84.9z M237.3,109.3c-0.4,0.9-0.8,1.6-1.3,2.1
				c-0.5,0.5-1.1,0.9-1.7,1c-0.6,0.1-1.4,0-2.2-0.4c-0.4-0.3-0.5-0.6-0.3-1.1c0.2-0.4,0.6-0.9,1.1-1.4c0.6-0.5,1.4-1,2.3-1.6
				c1-0.6,2-1.1,3.1-1.6C238,107.4,237.7,108.4,237.3,109.3z M243.6,79.8c0,0.4-0.2,0.8-0.6,1.4c-0.3,0.6-0.7,1.1-1.1,1.7
				c-0.4,0.6-0.5,1-0.5,1.2c0,0.2,0.1,0.4,0.3,0.5c0.1,0.1,0.3,0.2,0.5,0.3c-0.2,0.6-0.3,1.4-0.5,2.1c-0.2,0.8-0.4,1.5-0.6,2.2
				c-0.2,0.7-0.5,1.3-0.9,1.8c-0.4,0.5-0.8,0.8-1.4,0.9c-0.6,0.1-1-0.1-1.3-0.7c-0.3-0.5-0.5-1.2-0.5-2.1c0-0.9,0-1.8,0.3-2.9
				c0.2-1.1,0.6-2.1,1.1-3c0.5-0.9,1.1-1.8,1.8-2.5c0.7-0.7,1.6-1.1,2.5-1.3C243.3,79.3,243.7,79.4,243.6,79.8z"/>
			<path class="st3" d="M281.6,74.3c-0.2-1.2-0.7-2.3-1.4-3.2c-0.8-0.9-1.9-1.3-3.6-1.3c-1.3,0-2.5,0.3-3.6,0.8
				c-1.1,0.5-2,1.2-2.8,2.1c-0.8,0.9-1.3,1.9-1.7,3c-0.3,1.1-0.4,2.3-0.2,3.5c0.2,1,0.5,1.8,1,2.6c-0.1,0.1-0.1,0.3-0.2,0.4
				c-0.3,0.6-0.7,1.3-1,2c-0.3,0.7-0.7,1.4-1.1,2c-0.4,0.6-0.7,1.2-1.1,1.6c-0.4,0.4-0.8,0.7-1.1,0.7c-0.6,0.1-0.9-0.2-1-0.8
				c-0.1-0.7,0-1.4,0.2-2.3c0.2-0.9,0.5-1.8,0.8-2.7c0.4-0.9,0.7-1.6,1-2c0.2-0.2,0.2-0.5,0.2-0.7c-0.1-0.2-0.2-0.4-0.4-0.5
				c-0.2-0.2-0.5-0.3-0.8-0.4c-0.3-0.1-0.7-0.2-1-0.2c0.3-0.5,0.5-1,0.6-1.7c0.1-0.6,0.1-1.3,0-2.1c-0.1-0.3-0.2-0.7-0.4-1.1
				c-0.2-0.4-0.5-0.7-0.8-1c-0.4-0.3-0.8-0.5-1.3-0.6c-0.5-0.1-1.2-0.1-1.9,0c-0.7,0.1-1.7,0.6-3,1.3c-1.3,0.8-2.5,1.8-3.6,3.2
				c-1.2,1.3-2.1,3-2.8,4.9c-0.7,1.9-0.9,4.1-0.5,6.6c0.2,1.3,0.5,2.3,0.9,3.2c0.4,0.8,0.9,1.5,1.4,2.1c0.5,0.5,1.1,0.9,1.6,1.1
				c0.6,0.2,1.1,0.2,1.6,0.2c0.5-0.1,0.9-0.4,1.4-0.9c0.4-0.5,0.8-1.1,1.2-1.6c0.4-0.7,0.8-1.5,1.1-2.3c0.1,1,0.3,1.9,0.6,2.6
				c0.3,0.6,0.6,1.2,1.1,1.7c0.5,0.5,1.2,0.6,2.1,0.5c1.2-0.2,2.3-0.7,3.2-1.5c1-0.8,1.8-1.8,2.6-3c0.7-1.1,1.3-2.3,1.8-3.6
				c0.3-0.8,0.6-1.6,0.7-2.4c0.5,0.5,0.9,1.1,1.3,1.6c0.5,0.6,0.8,1.3,0.9,2c0.1,0.6,0.1,1.1-0.1,1.5c-0.1,0.4-0.5,0.7-1,0.8
				c-0.4,0.1-0.6,0-0.8-0.1c-0.1-0.1-0.2-0.3-0.2-0.5c0-0.2-0.1-0.3-0.1-0.5c0-0.1-0.1-0.2-0.3-0.2c-0.5,0.1-0.7,0.4-0.9,0.8
				c-0.1,0.5-0.1,1,0.2,1.5c0.2,0.5,0.7,1,1.3,1.3c0.6,0.4,1.5,0.5,2.6,0.3c2-0.3,3.5-1.1,4.4-2.3c0.9-1.2,1.3-2.7,1-4.4
				c-0.2-0.9-0.5-1.8-1.1-2.5c-0.6-0.7-1.1-1.4-1.7-2c-0.6-0.6-1.2-1.3-1.7-1.9c-0.5-0.6-0.8-1.3-1-2.1c-0.2-1.3-0.1-2.5,0.5-3.5
				c0.5-1,1.5-1.7,2.9-1.9c0.6-0.1,1,0.1,1.1,0.5c0.2,0.4,0.2,0.9,0,1.5c-0.2,0.6-0.5,1.1-0.9,1.7c-0.4,0.5-0.9,0.8-1.6,0.9
				c-0.3,0.1-0.5,0.3-0.5,0.7c0,0.4,0.1,0.9,0.3,1.3c0.2,0.4,0.6,0.8,1,1.2c0.4,0.3,0.9,0.5,1.5,0.4c0.5-0.1,1-0.3,1.4-0.8
				c0.4-0.4,0.7-1,1-1.6c0.3-0.6,0.4-1.3,0.5-2C281.7,75.6,281.7,75,281.6,74.3z M261.2,77.1c-0.1,0.3-0.2,0.6-0.5,1
				c-0.2,0.4-0.5,0.7-0.7,1.1c-0.2,0.4-0.4,0.7-0.6,1c-0.2,0.3-0.2,0.5-0.2,0.7c0,0.2,0.1,0.4,0.3,0.5c0.1,0.1,0.3,0.2,0.5,0.2
				c-0.2,0.7-0.3,1.3-0.5,2.1c-0.2,0.7-0.4,1.4-0.6,2.1c-0.2,0.7-0.5,1.2-0.9,1.7c-0.3,0.5-0.8,0.8-1.3,0.8c-0.6,0.1-1-0.1-1.3-0.6
				c-0.3-0.5-0.4-1.2-0.5-2c0-0.8,0-1.8,0.3-2.8c0.2-1,0.6-2,1-2.9c0.5-0.9,1-1.7,1.7-2.4c0.7-0.7,1.5-1.1,2.4-1.2
				c0.4-0.1,0.7,0,0.8,0.1C261.2,76.6,261.3,76.9,261.2,77.1z"/>
		</g>
	</g>
</g>
</svg>
