<?xml version="1.0" encoding="utf-8"?>
<!-- Generator: Adobe Illustrator 22.1.0, SVG Export Plug-In . SVG Version: 6.00 Build 0)  -->
<svg version="1.1" id="Layer_1" xmlns="http://www.w3.org/2000/svg" xmlns:xlink="http://www.w3.org/1999/xlink" x="0px" y="0px"
	 viewBox="0 0 243 121" style="enable-background:new 0 0 243 121;" xml:space="preserve">
<style type="text/css">
	.st0{fill:#012756;}
	.st1{fill:#C22524;}
	.st2{fill:#FFFFFF;}
	.st3{fill:#012756;stroke:#012756;stroke-width:7.4623;stroke-linejoin:round;}
	.st4{fill:#F49C00;}
</style>
<path id="Shape_7_copy_3_1_" class="st0" d="M191.1,33.1v14.6l-8.2-14.6l-46.4,0l-3.7,5.8v-5.7h-22.7L98.3,5L83.2,33.1H64.1L62,36.6
	l-1.8-3.5H4.8V77h54.7l-15.2,32.2l6.7,0l46.9-52.5L109.8,77h23.1v-6.9l5.4,6.9h26.8l3.2-8h7.3l4,8h62.2V33.1H191.1z M37.5,53.1"/>
<path id="Shape_7_copy_1_" class="st1" d="M186.5,29v14.6L178.3,29l-45.8,0l-3.7,5.8V29h-22.7L94.2,1L79.1,29H60l-2.1,3.5L56.1,29
	H0.7v43.9h54.7l-15.2,32.2l6.7,0l46.9-52.5l11.8,20.2h7l-2.2,6.5l17.4-3.3l5.3-0.3l1.1-3h28.2l3.9-5.6l5.3,0.3l5.3,5.3h60.8V29
	H186.5z M33.4,49"/>
<path class="st2" d="M154.8,67.6h-17.6l-12.3-15.8l10.9-17.1h16.8l-12.2,17.1L154.8,67.6L154.8,67.6z M109.1,67.6L94.9,43.3
	l-46,53.8l45-83.2L109.1,50V34.8h14.4v32.9H109.1z M41.7,58.5c0,6.8-6.6,9.2-8,9.2H6.5V34.8h25.6c0,0,6.6,1.4,6.7,6.7
	c0.1,2.9-0.8,7.8-5.2,7.8C34,49.2,41.7,51.7,41.7,58.5L41.7,58.5L41.7,58.5z M25,42c-0.6,0-5.7,0.1-5.7,0.1l0,5.5H25
	c0.3,0,2.3-0.7,2.3-3.1C27.3,42.3,25.5,42,25,42L25,42L25,42z M25.8,54.8h-6.4v6.4h6.4c0.4,0,3.2-0.5,3.2-3.2S26.1,54.8,25.8,54.8
	L25.8,54.8L25.8,54.8z M59.4,67.6H45L50.5,57L37.8,34.8H53l4.8,9.6l5.6-9.6h14.4L59.4,67.6L59.4,67.6L59.4,67.6z M218.2,67.6V54.8
	h-12.8v12.8h-7.2l-7.2-12V34.8h14.4v12h12.8v-12h14.4v32.9H218.2L218.2,67.6z M180.5,67.6l-4-8H162l-3.2,8h-1.6l-8.2-9.3l12.2-23.5
	h16l18.4,32.9L180.5,67.6L180.5,67.6z M168.4,43.6l-4,9.6h8.8L168.4,43.6L168.4,43.6z"/>
<path class="st3" d="M112.9,68.2c0.5-1.2,1.1-2,1.7-2.4c0.7-0.4,1.4-0.3,2.3,0.3c0.3,0.2,0.5,0.2,0.6,0c0.2-0.3,0.2-0.7,0.1-1.1
	c-0.2-1.2-0.7-2.4-1.6-3.2c-0.6-0.5-1.2-0.9-2-1.1c-0.9-0.3-1.9-0.3-2.9-0.1c-1,0.2-1.8,0.8-2.6,1.9c-0.9,1.3-1.5,2.7-1.9,4.2
	c-0.6,1.9-1.1,3.9-1.4,5.9c-0.4,2.2-0.7,4.5-1,6.8c-0.3,2.3-0.5,4.7-0.7,7c-0.2,2.3-0.4,4.5-0.6,6.5c-0.2,2-0.3,3.8-0.5,5.3
	c-0.1,1.1-0.3,2.3-0.6,3.4c-0.1-0.3-0.2-1.2-0.6-2.6c-0.3-1.4-0.7-3.1-1.1-5.1c-0.4-2-0.9-4.1-1.5-6.4c-0.5-2.3-1-4.5-1.4-6.7
	c-0.2-0.7-0.5-1.4-0.9-2.1c-0.5-0.6-1-1.2-1.6-1.6c-0.6-0.5-1.3-0.9-2-1.2c-0.7-0.3-1.4-0.6-2.1-0.8c-1.4-1-2.8-1.5-4.2-1.5
	c-1.4,0-2.7,0.4-3.9,1.2c-1.3,0.9-2.4,2-3.3,3.4c-1,1.5-1.8,3.2-2.4,4.9c-0.6,1.9-1,3.9-1.2,5.9c-0.2,2.1-0.1,4.2,0.2,6.3
	c0.1,0.7,0.4,1.4,0.9,1.9c0.5,0.6,1.1,1.1,1.7,1.6c0.7,0.5,1.4,0.9,2.1,1.2c0.7,0.3,1.4,0.5,2.2,0.7c0.6,0.1,1.2,0.2,1.8,0.1
	c0.5-0.1,0.9-0.2,1-0.4c0.2-0.3,0.2-0.5,0.1-0.7c-0.2-0.1-0.5-0.4-0.8-0.7c-0.5-0.4-0.9-0.9-1.2-1.4c-0.4-0.6-0.7-1.6-0.9-2.9
	c-0.2-1.3-0.3-2.6-0.2-3.9c0.1-2.9,0.5-5.9,1.2-8.7c0.3-1.2,0.7-2.4,1.1-3.6c0.3-0.8,0.7-1.6,1.2-2.3c0.4-0.5,0.8-0.6,1.1-0.4
	c0.1,0.1,0.3,0.2,0.5,0.3c0.8,0.8,1.6,2.1,2.4,3.8c0.8,1.8,1.6,3.7,2.2,5.7c0.7,2.1,1.3,4.3,1.8,6.5c0.6,2.2,1,4.3,1.5,6.2
	c0.4,1.9,0.7,3.5,1,4.9c0.2,1.3,0.4,2.1,0.4,2.4c0.1,0.4,0.3,0.8,0.7,1.1c0.4,0.4,0.9,0.8,1.5,1.1c0.6,0.4,1.2,0.7,1.9,1
	c0.7,0.3,1.3,0.6,2,0.8c0.6,0.2,1.2,0.4,1.6,0.5c0.3,0.1,0.6,0.2,0.9,0.2c0.6-0.1,1.1-0.6,1.5-1.6c0.5-1.3,0.9-2.6,1.1-3.9
	c0.3-1.6,0.6-3.5,0.8-5.5s0.4-4.3,0.6-6.6c0.2-2.3,0.4-4.6,0.6-7c0.2-2.4,0.4-4.6,0.7-6.7c0.3-2.1,0.6-4.1,0.9-5.9
	C111.9,71.1,112.3,69.6,112.9,68.2z M150.9,100c-0.5-0.7-1.1-1.3-1.8-1.8c-0.8-0.6-1.6-1-2.5-1.3c-1-0.3-2.1-0.4-3.2-0.2
	c-1,0.2-2.1,0.4-3.2,0.7c0.1-0.4,0.2-1,0.3-1.7c0.1-0.7,0.3-1.6,0.4-2.5c0.1-0.9,0.3-1.9,0.5-2.9s0.3-2,0.5-2.9
	c0.2-0.9,0.3-1.8,0.4-2.6c0.1-0.6,0.2-1.3,0.4-1.9c0.2-0.4,0-0.8-0.5-1.1c-0.5-0.3-1.2-0.5-1.8-0.6c0.3-0.5,0.5-1.1,0.6-1.7
	c0.1-0.7,0.1-1.4,0-2.1c-0.1-0.4-0.2-0.8-0.4-1.1c-0.2-0.4-0.5-0.7-0.8-1c-0.4-0.3-0.9-0.5-1.4-0.6c-0.7-0.1-1.3-0.1-2,0
	c-0.7,0.1-1.3,0.4-1.9,0.7c-0.9,0.4-1.7,0.9-2.4,1.5c-0.9,0.7-1.7,1.5-2.5,2.4c-0.8,1-1.6,2.1-2.1,3.2c-0.6,1.3-1,2.6-1.3,4
	c0,0.2-0.1,0.5-0.1,0.7c-0.3,0.7-0.7,1.4-1.1,2.2c-0.6,1.1-1.3,2.1-2.2,2.9c-0.9,0.9-2,1.5-3.2,1.7c-1,0.2-1.7-0.1-2.1-0.7
	c-0.5-0.7-0.7-1.6-0.7-2.5c1-0.2,1.9-0.6,2.7-1.2c1-0.7,1.9-1.4,2.7-2.3c0.8-0.9,1.5-1.8,2.1-2.9c0.5-0.9,0.8-1.8,0.9-2.8
	c0.1-1.6-0.4-2.8-1.2-3.6c-0.9-0.8-2.1-1.1-3.7-0.8c-1.1,0.2-2.2,0.7-3.4,1.7c-1.3,1-2.3,2.2-3.2,3.6c-1,1.5-1.7,3.2-2.2,4.9
	c-0.5,1.9-0.6,3.8-0.3,5.7c0.2,1.3,0.6,2.5,1.2,3.6c0.5,0.9,1.1,1.7,1.9,2.3c0.6,0.5,1.4,0.9,2.2,1.2c0.7,0.2,1.3,0.3,2,0.2
	c1.3-0.2,2.5-0.7,3.6-1.5c1.1-0.8,2.1-1.8,3-3c0.6-0.9,1.2-1.8,1.7-2.7c0.1,0.5,0.3,1,0.6,1.4c0.4,0.8,0.9,1.5,1.5,2.1
	c0.5,0.5,1,0.8,1.7,1.1c0.5,0.2,1.1,0.3,1.7,0.2c0.4-0.1,0.7-0.2,1-0.5c0.3-0.3,0.6-0.6,0.9-1c0.3-0.4,0.5-0.8,0.8-1.2
	c0.2-0.4,0.5-0.8,0.7-1.1c-0.2,0.7-0.4,1.6-0.6,2.5c-0.2,0.9-0.4,1.8-0.6,2.8c-1.3,0.6-2.6,1.3-3.8,2c-1.1,0.7-2.2,1.6-3.1,2.6
	c-0.9,0.9-1.6,2-2.1,3.2c-0.5,1.2-0.7,2.5-0.6,3.8c0,0.2,0,0.3,0,0.5c0,0.2,0,0.3,0,0.5c0.1,0.6,0.3,1.1,0.6,1.6
	c0.3,0.6,0.7,1.1,1.2,1.5c0.6,0.5,1.3,0.8,2,1c0.9,0.2,1.9,0.3,2.8,0.1c1-0.1,2-0.6,2.7-1.2c0.8-0.8,1.5-1.7,2-2.7
	c0.6-1.3,1.1-2.7,1.5-4c0.4-1.6,0.9-3.4,1.3-5.3c1.2-0.4,2.4-0.7,3.6-0.9c1.1-0.2,2.2-0.4,3.3-0.5c0.9-0.1,1.9,0,2.8,0.1
	c0.7,0.1,1.5,0.4,2.1,0.8c0.5,0.4,0.9,0.5,1,0.3c0.2-0.2,0.2-0.5,0-1C151.6,101.1,151.3,100.5,150.9,100z M118.3,84
	c0.3-0.7,0.6-1.4,1.1-2.1c0.3-0.6,0.8-1.1,1.3-1.5c0.4-0.4,0.8-0.6,1.3-0.7c0.5-0.1,0.7,0.1,0.7,0.6s-0.2,1.1-0.6,1.8
	c-0.5,0.8-1.1,1.6-1.8,2.3c-0.8,0.8-1.8,1.5-2.9,2C117.7,85.5,118,84.8,118.3,84L118.3,84z M131.9,108.3c-0.3,0.8-0.8,1.5-1.3,2.1
	c-0.4,0.5-1,0.9-1.7,1c-0.6,0.1-1.4,0-2.2-0.4c-0.4-0.2-0.5-0.7-0.3-1.1c0.3-0.5,0.7-1,1.1-1.4c0.7-0.6,1.5-1.1,2.3-1.6
	c0.9-0.6,2-1.1,3.1-1.6C132.6,106.3,132.3,107.3,131.9,108.3L131.9,108.3z M138.1,78.9c-0.1,0.5-0.3,1-0.6,1.4
	c-0.3,0.5-0.7,1.1-1.1,1.7c-0.4,0.6-0.5,1-0.5,1.2c0,0.2,0.1,0.4,0.3,0.5c0.1,0.1,0.3,0.2,0.5,0.3c-0.2,0.6-0.3,1.4-0.5,2.1
	c-0.2,0.7-0.4,1.5-0.6,2.2c-0.2,0.6-0.5,1.2-0.9,1.8c-0.3,0.5-0.8,0.8-1.3,0.9c-0.5,0.1-1.1-0.2-1.3-0.7c-0.3-0.6-0.5-1.4-0.5-2.1
	c0-1,0.1-1.9,0.3-2.9c0.2-1,0.6-2.1,1.1-3c0.5-0.9,1.1-1.8,1.8-2.5c0.7-0.7,1.6-1.1,2.5-1.3C137.8,78.4,138.1,78.5,138.1,78.9z
	 M176,73.5c-0.2-1.2-0.7-2.3-1.4-3.2c-0.8-0.9-1.9-1.3-3.5-1.3c-1.3,0-2.5,0.3-3.6,0.8c-1.1,0.5-2,1.2-2.8,2.1
	c-0.8,0.9-1.3,1.9-1.7,3c-0.3,1.1-0.4,2.3-0.2,3.5c0.1,0.9,0.5,1.8,1,2.6c-0.1,0.1-0.1,0.3-0.2,0.4c-0.3,0.6-0.6,1.3-1,2
	c-0.3,0.7-0.7,1.4-1.1,2c-0.3,0.6-0.7,1.1-1.1,1.6c-0.3,0.4-0.7,0.6-1.1,0.7c-0.6,0.1-0.9-0.2-1-0.8c-0.1-0.8,0-1.6,0.2-2.3
	c0.2-0.9,0.5-1.8,0.8-2.7c0.3-0.7,0.6-1.4,1-2c0.2-0.2,0.2-0.4,0.2-0.7c-0.1-0.2-0.2-0.4-0.4-0.5c-0.2-0.2-0.5-0.3-0.8-0.4
	c-0.3-0.1-0.7-0.2-1-0.2c0.3-0.5,0.5-1.1,0.6-1.6c0.1-0.7,0.1-1.4,0-2.1c-0.1-0.4-0.2-0.7-0.4-1.1c-0.2-0.4-0.5-0.7-0.8-1
	c-0.4-0.3-0.8-0.5-1.3-0.6c-0.6-0.1-1.3-0.1-1.9,0c-0.7,0.1-1.7,0.6-3,1.3c-1.4,0.9-2.6,1.9-3.6,3.2c-1.2,1.5-2.1,3.1-2.8,4.9
	c-0.7,1.9-0.8,4.1-0.5,6.6c0.2,1.1,0.5,2.2,0.9,3.2c0.4,0.8,0.8,1.4,1.4,2c0.4,0.5,1,0.8,1.6,1.1c0.5,0.2,1.1,0.2,1.6,0.2
	c0.6-0.1,1-0.4,1.4-0.9c0.4-0.5,0.8-1,1.2-1.6c0.4-0.7,0.8-1.5,1.1-2.3c0,0.9,0.2,1.8,0.6,2.6c0.2,0.6,0.6,1.2,1.1,1.7
	c0.5,0.5,1.2,0.6,2,0.5c1.2-0.2,2.3-0.7,3.2-1.5c1-0.9,1.9-1.8,2.6-2.9c0.7-1.1,1.3-2.3,1.8-3.6c0.3-0.8,0.5-1.6,0.7-2.4
	c0.5,0.5,0.9,1.1,1.3,1.6c0.5,0.6,0.8,1.3,0.9,2c0.1,0.5,0.1,1-0.1,1.5c-0.1,0.4-0.5,0.7-1,0.8c-0.4,0.1-0.6,0-0.8-0.1
	c-0.1-0.1-0.2-0.3-0.2-0.5c0-0.2-0.1-0.3-0.1-0.5c0-0.1-0.2-0.2-0.3-0.2c0,0,0,0,0,0c-0.4,0.1-0.8,0.4-0.9,0.8
	c-0.1,0.5-0.1,1,0.2,1.5c0.3,0.6,0.8,1,1.3,1.3c0.6,0.4,1.5,0.5,2.6,0.3c2-0.3,3.5-1.1,4.4-2.3c1.5-2,1.5-4.8,0-6.8
	c-0.5-0.7-1.1-1.4-1.7-2c-0.6-0.6-1.2-1.2-1.7-1.9c-0.5-0.6-0.8-1.3-1-2.1c-0.2-1.2-0.1-2.4,0.5-3.5c0.5-1,1.5-1.7,2.8-1.9
	c0.6-0.1,0.9,0.1,1.1,0.5c0.2,0.5,0.2,1,0,1.5c-0.2,0.6-0.5,1.2-0.9,1.7c-0.4,0.5-0.9,0.8-1.5,0.9c-0.3,0.1-0.5,0.3-0.5,0.7
	c0,0.5,0.1,0.9,0.3,1.3c0.3,0.5,0.6,0.9,1,1.2c0.4,0.3,1,0.5,1.5,0.4c0.5-0.1,1-0.4,1.4-0.8c0.4-0.5,0.8-1,1-1.6
	c0.3-0.6,0.4-1.3,0.5-2C176,74.8,176.1,74.1,176,73.5z M155.6,76.3c-0.1,0.3-0.3,0.7-0.5,1c-0.2,0.4-0.5,0.7-0.7,1.1
	c-0.2,0.4-0.4,0.7-0.6,1c-0.1,0.2-0.2,0.4-0.2,0.7c0,0.2,0.1,0.4,0.3,0.5c0.1,0.1,0.3,0.2,0.5,0.2c-0.2,0.6-0.3,1.3-0.5,2.1
	c-0.2,0.7-0.3,1.4-0.6,2.1c-0.2,0.6-0.5,1.2-0.9,1.7c-0.3,0.4-0.8,0.7-1.3,0.8c-0.5,0.1-1.1-0.1-1.3-0.6c-0.3-0.6-0.5-1.3-0.5-2
	c0-0.9,0.1-1.9,0.3-2.8c0.2-1,0.6-2,1-2.9c0.4-0.9,1-1.7,1.7-2.4c0.7-0.6,1.5-1.1,2.4-1.2c0.4-0.1,0.7,0,0.8,0.1
	C155.7,75.8,155.7,76.1,155.6,76.3z"/>
<path id="Shape_10_copy_2_1_" class="st4" d="M112.9,68.2c0.5-1.2,1.1-2,1.7-2.4c0.7-0.4,1.4-0.3,2.3,0.3c0.3,0.2,0.5,0.2,0.6,0
	c0.2-0.3,0.2-0.7,0.1-1.1c-0.2-1.2-0.7-2.4-1.6-3.2c-0.6-0.5-1.2-0.9-2-1.1c-0.9-0.3-1.9-0.3-2.9-0.1c-1,0.2-1.8,0.8-2.6,1.9
	c-0.9,1.3-1.5,2.7-1.9,4.2c-0.6,1.9-1.1,3.9-1.4,5.9c-0.4,2.2-0.7,4.5-1,6.8c-0.3,2.3-0.5,4.7-0.7,7c-0.2,2.3-0.4,4.5-0.6,6.5
	c-0.2,2-0.3,3.8-0.5,5.3c-0.1,1.1-0.3,2.3-0.6,3.4c-0.1-0.3-0.2-1.2-0.6-2.6c-0.3-1.4-0.7-3.1-1.1-5.1c-0.4-2-0.9-4.1-1.5-6.4
	c-0.5-2.3-1-4.5-1.4-6.7c-0.2-0.7-0.5-1.4-0.9-2.1c-0.5-0.6-1-1.2-1.6-1.6c-0.6-0.5-1.3-0.9-2-1.2c-0.7-0.3-1.4-0.6-2.1-0.8
	c-1.4-1-2.8-1.5-4.2-1.5c-1.4,0-2.7,0.4-3.9,1.2c-1.3,0.9-2.4,2-3.3,3.4c-1,1.5-1.8,3.2-2.4,4.9c-0.6,1.9-1,3.9-1.2,5.9
	c-0.2,2.1-0.1,4.2,0.2,6.3c0.1,0.7,0.4,1.4,0.9,1.9c0.5,0.6,1.1,1.1,1.7,1.6c0.7,0.5,1.4,0.9,2.1,1.2c0.7,0.3,1.4,0.5,2.2,0.7
	c0.6,0.1,1.2,0.2,1.8,0.1c0.5-0.1,0.9-0.2,1-0.4c0.2-0.3,0.2-0.5,0.1-0.7c-0.2-0.1-0.5-0.4-0.8-0.7c-0.5-0.4-0.9-0.9-1.2-1.4
	c-0.4-0.6-0.7-1.6-0.9-2.9c-0.2-1.3-0.3-2.6-0.2-3.9c0.1-2.9,0.5-5.9,1.2-8.7c0.3-1.2,0.7-2.4,1.1-3.6c0.3-0.8,0.7-1.6,1.2-2.3
	c0.4-0.5,0.8-0.6,1.1-0.4c0.1,0.1,0.3,0.2,0.5,0.3c0.8,0.8,1.6,2.1,2.4,3.8c0.8,1.8,1.6,3.7,2.2,5.7c0.7,2.1,1.3,4.3,1.8,6.5
	c0.6,2.2,1,4.3,1.5,6.2c0.4,1.9,0.7,3.5,1,4.9c0.2,1.3,0.4,2.1,0.4,2.4c0.1,0.4,0.3,0.8,0.7,1.1c0.4,0.4,0.9,0.8,1.5,1.1
	c0.6,0.4,1.2,0.7,1.9,1c0.7,0.3,1.3,0.6,2,0.8c0.6,0.2,1.2,0.4,1.6,0.5c0.3,0.1,0.6,0.2,0.9,0.2c0.6-0.1,1.1-0.6,1.5-1.6
	c0.5-1.3,0.9-2.6,1.1-3.9c0.3-1.6,0.6-3.5,0.8-5.5c0.2-2.1,0.4-4.3,0.6-6.6c0.2-2.3,0.4-4.6,0.6-7c0.2-2.4,0.4-4.6,0.7-6.7
	c0.3-2.1,0.6-4.1,0.9-5.9C111.9,71.1,112.3,69.6,112.9,68.2z M150.9,100c-0.5-0.7-1.1-1.3-1.8-1.8c-0.8-0.6-1.6-1-2.5-1.3
	c-1-0.3-2.1-0.4-3.2-0.2c-1,0.2-2.1,0.4-3.2,0.7c0.1-0.4,0.2-1,0.3-1.7c0.1-0.7,0.3-1.6,0.4-2.5c0.1-0.9,0.3-1.9,0.5-2.9
	s0.3-2,0.5-2.9c0.2-0.9,0.3-1.8,0.4-2.6c0.1-0.6,0.2-1.3,0.4-1.9c0.2-0.4,0-0.8-0.5-1.1c-0.5-0.3-1.2-0.5-1.8-0.6
	c0.3-0.5,0.5-1.1,0.6-1.7c0.1-0.7,0.1-1.4,0-2.1c-0.1-0.4-0.2-0.8-0.4-1.1c-0.2-0.4-0.5-0.7-0.8-1c-0.4-0.3-0.9-0.5-1.4-0.6
	c-0.7-0.1-1.3-0.1-2,0c-0.7,0.1-1.3,0.4-1.9,0.7c-0.9,0.4-1.7,0.9-2.4,1.5c-0.9,0.7-1.7,1.5-2.5,2.4c-0.8,1-1.6,2.1-2.1,3.2
	c-0.6,1.3-1,2.6-1.3,4c0,0.2-0.1,0.5-0.1,0.7c-0.3,0.7-0.7,1.4-1.1,2.2c-0.6,1.1-1.3,2.1-2.2,2.9c-0.9,0.9-2,1.5-3.2,1.7
	c-1,0.2-1.7-0.1-2.1-0.7c-0.5-0.7-0.7-1.6-0.7-2.5c1-0.2,1.9-0.6,2.7-1.2c1-0.7,1.9-1.4,2.7-2.3c0.8-0.9,1.5-1.8,2.1-2.9
	c0.5-0.9,0.8-1.8,0.9-2.8c0.1-1.6-0.4-2.8-1.2-3.6c-0.9-0.8-2.1-1.1-3.7-0.8c-1.1,0.2-2.2,0.7-3.4,1.7c-1.3,1-2.3,2.2-3.2,3.6
	c-1,1.5-1.7,3.2-2.2,4.9c-0.5,1.9-0.6,3.8-0.3,5.7c0.2,1.3,0.6,2.5,1.2,3.6c0.5,0.9,1.1,1.7,1.9,2.3c0.6,0.5,1.4,0.9,2.2,1.2
	c0.7,0.2,1.3,0.3,2,0.2c1.3-0.2,2.5-0.7,3.6-1.5c1.1-0.8,2.1-1.8,3-3c0.6-0.9,1.2-1.8,1.7-2.7c0.1,0.5,0.3,1,0.6,1.4
	c0.4,0.8,0.9,1.5,1.5,2.1c0.5,0.5,1,0.8,1.7,1.1c0.5,0.2,1.1,0.3,1.7,0.2c0.4-0.1,0.7-0.2,1-0.5c0.3-0.3,0.6-0.6,0.9-1
	c0.3-0.4,0.5-0.8,0.8-1.2c0.2-0.4,0.5-0.8,0.7-1.1c-0.2,0.7-0.4,1.6-0.6,2.5c-0.2,0.9-0.4,1.8-0.6,2.8c-1.3,0.6-2.6,1.3-3.8,2
	c-1.1,0.7-2.2,1.6-3.1,2.6c-0.9,0.9-1.6,2-2.1,3.2c-0.5,1.2-0.7,2.5-0.6,3.8c0,0.2,0,0.3,0,0.5c0,0.2,0,0.3,0,0.5
	c0.1,0.6,0.3,1.1,0.6,1.6c0.3,0.6,0.7,1.1,1.2,1.5c0.6,0.5,1.3,0.8,2,1c0.9,0.2,1.9,0.3,2.8,0.1c1-0.1,2-0.6,2.7-1.2
	c0.8-0.8,1.5-1.7,2-2.7c0.6-1.3,1.1-2.7,1.5-4c0.4-1.6,0.9-3.4,1.3-5.3c1.2-0.4,2.4-0.7,3.6-0.9c1.1-0.2,2.2-0.4,3.3-0.5
	c0.9-0.1,1.9,0,2.8,0.1c0.7,0.1,1.5,0.4,2.1,0.8c0.5,0.4,0.9,0.5,1,0.3c0.2-0.2,0.2-0.5,0-1C151.6,101.1,151.3,100.5,150.9,100z
	 M118.3,84c0.3-0.7,0.6-1.4,1.1-2.1c0.3-0.6,0.8-1.1,1.3-1.5c0.4-0.4,0.8-0.6,1.3-0.7c0.5-0.1,0.7,0.1,0.7,0.6s-0.2,1.1-0.6,1.8
	c-0.5,0.8-1.1,1.6-1.8,2.3c-0.8,0.8-1.8,1.5-2.9,2C117.7,85.5,118,84.8,118.3,84L118.3,84z M131.9,108.3c-0.3,0.8-0.8,1.5-1.3,2.1
	c-0.4,0.5-1,0.9-1.7,1c-0.6,0.1-1.4,0-2.2-0.4c-0.4-0.2-0.5-0.7-0.3-1.1c0.3-0.5,0.7-1,1.1-1.4c0.7-0.6,1.5-1.1,2.3-1.6
	c0.9-0.6,2-1.1,3.1-1.6C132.6,106.3,132.3,107.3,131.9,108.3L131.9,108.3z M138.1,78.9c-0.1,0.5-0.3,1-0.6,1.4
	c-0.3,0.5-0.7,1.1-1.1,1.7c-0.4,0.6-0.5,1-0.5,1.2c0,0.2,0.1,0.4,0.3,0.5c0.1,0.1,0.3,0.2,0.5,0.3c-0.2,0.6-0.3,1.4-0.5,2.1
	c-0.2,0.7-0.4,1.5-0.6,2.2c-0.2,0.6-0.5,1.2-0.9,1.8c-0.3,0.5-0.8,0.8-1.3,0.9c-0.5,0.1-1.1-0.2-1.3-0.7c-0.3-0.6-0.5-1.4-0.5-2.1
	c0-1,0.1-1.9,0.3-2.9c0.2-1,0.6-2.1,1.1-3c0.5-0.9,1.1-1.8,1.8-2.5c0.7-0.7,1.6-1.1,2.5-1.3C137.8,78.4,138.1,78.5,138.1,78.9z
	 M176,73.5c-0.2-1.2-0.7-2.3-1.4-3.2c-0.8-0.9-1.9-1.3-3.5-1.3c-1.3,0-2.5,0.3-3.6,0.8c-1.1,0.5-2,1.2-2.8,2.1
	c-0.8,0.9-1.3,1.9-1.7,3c-0.3,1.1-0.4,2.3-0.2,3.5c0.1,0.9,0.5,1.8,1,2.6c-0.1,0.1-0.1,0.3-0.2,0.4c-0.3,0.6-0.6,1.3-1,2
	c-0.3,0.7-0.7,1.4-1.1,2c-0.3,0.6-0.7,1.1-1.1,1.6c-0.3,0.4-0.7,0.6-1.1,0.7c-0.6,0.1-0.9-0.2-1-0.8c-0.1-0.8,0-1.6,0.2-2.3
	c0.2-0.9,0.5-1.8,0.8-2.7c0.3-0.7,0.6-1.4,1-2c0.2-0.2,0.2-0.4,0.2-0.7c-0.1-0.2-0.2-0.4-0.4-0.5c-0.2-0.2-0.5-0.3-0.8-0.4
	c-0.3-0.1-0.7-0.2-1-0.2c0.3-0.5,0.5-1.1,0.6-1.6c0.1-0.7,0.1-1.4,0-2.1c-0.1-0.4-0.2-0.7-0.4-1.1c-0.2-0.4-0.5-0.7-0.8-1
	c-0.4-0.3-0.8-0.5-1.3-0.6c-0.6-0.1-1.3-0.1-1.9,0c-0.7,0.1-1.7,0.6-3,1.3c-1.4,0.9-2.6,1.9-3.6,3.2c-1.2,1.5-2.1,3.1-2.8,4.9
	c-0.7,1.9-0.8,4.1-0.5,6.6c0.2,1.1,0.5,2.2,0.9,3.2c0.4,0.8,0.8,1.4,1.4,2c0.4,0.5,1,0.8,1.6,1.1c0.5,0.2,1.1,0.2,1.6,0.2
	c0.6-0.1,1-0.4,1.4-0.9c0.4-0.5,0.8-1,1.2-1.6c0.4-0.7,0.8-1.5,1.1-2.3c0,0.9,0.2,1.8,0.6,2.6c0.2,0.6,0.6,1.2,1.1,1.7
	c0.5,0.5,1.2,0.6,2,0.5c1.2-0.2,2.3-0.7,3.2-1.5c1-0.9,1.9-1.8,2.6-2.9c0.7-1.1,1.3-2.3,1.8-3.6c0.3-0.8,0.5-1.6,0.7-2.4
	c0.5,0.5,0.9,1.1,1.3,1.6c0.5,0.6,0.8,1.3,0.9,2c0.1,0.5,0.1,1-0.1,1.5c-0.1,0.4-0.5,0.7-1,0.8c-0.4,0.1-0.6,0-0.8-0.1
	c-0.1-0.1-0.2-0.3-0.2-0.5c0-0.2-0.1-0.3-0.1-0.5c0-0.1-0.2-0.2-0.3-0.2c0,0,0,0,0,0c-0.4,0.1-0.8,0.4-0.9,0.8
	c-0.1,0.5-0.1,1,0.2,1.5c0.3,0.6,0.8,1,1.3,1.3c0.6,0.4,1.5,0.5,2.6,0.3c2-0.3,3.5-1.1,4.4-2.3c1.5-2,1.5-4.8,0-6.8
	c-0.5-0.7-1.1-1.4-1.7-2c-0.6-0.6-1.2-1.2-1.7-1.9c-0.5-0.6-0.8-1.3-1-2.1c-0.2-1.2-0.1-2.4,0.5-3.5c0.5-1,1.5-1.7,2.8-1.9
	c0.6-0.1,0.9,0.1,1.1,0.5c0.2,0.5,0.2,1,0,1.5c-0.2,0.6-0.5,1.2-0.9,1.7c-0.4,0.5-0.9,0.8-1.5,0.9c-0.3,0.1-0.5,0.3-0.5,0.7
	c0,0.5,0.1,0.9,0.3,1.3c0.3,0.5,0.6,0.9,1,1.2c0.4,0.3,1,0.5,1.5,0.4c0.5-0.1,1-0.4,1.4-0.8c0.4-0.5,0.8-1,1-1.6
	c0.3-0.6,0.4-1.3,0.5-2C176,74.8,176.1,74.1,176,73.5z M155.6,76.3c-0.1,0.3-0.3,0.7-0.5,1c-0.2,0.4-0.5,0.7-0.7,1.1
	c-0.2,0.4-0.4,0.7-0.6,1c-0.1,0.2-0.2,0.4-0.2,0.7c0,0.2,0.1,0.4,0.3,0.5c0.1,0.1,0.3,0.2,0.5,0.2c-0.2,0.6-0.3,1.3-0.5,2.1
	c-0.2,0.7-0.3,1.4-0.6,2.1c-0.2,0.6-0.5,1.2-0.9,1.7c-0.3,0.4-0.8,0.7-1.3,0.8c-0.5,0.1-1.1-0.1-1.3-0.6c-0.3-0.6-0.5-1.3-0.5-2
	c0-0.9,0.1-1.9,0.3-2.8c0.2-1,0.6-2,1-2.9c0.4-0.9,1-1.7,1.7-2.4c0.7-0.6,1.5-1.1,2.4-1.2c0.4-0.1,0.7,0,0.8,0.1
	C155.7,75.8,155.7,76.1,155.6,76.3z"/>
</svg>
